<?xml version="1.0" encoding="utf-8"?>
<!-- Generator: Adobe Illustrator 19.1.0, SVG Export Plug-In . SVG Version: 6.00 Build 0)  -->
<svg version="1.1" id="Слой_1" xmlns="http://www.w3.org/2000/svg" xmlns:xlink="http://www.w3.org/1999/xlink" x="0px" y="0px"
	 viewBox="0 0 36.5 36.6" style="enable-background:new 0 0 36.5 36.6;" xml:space="preserve">
<style type="text/css">
	.st0{clip-path:url(#SVGID_2_);fill:#398BB7;}
	.st1{clip-path:url(#SVGID_2_);fill:#FFFFFF;}
</style>
<g>
	<defs>
		<rect id="SVGID_1_" width="36.5" height="36.6"/>
	</defs>
	<clipPath id="SVGID_2_">
		<use xlink:href="#SVGID_1_"  style="overflow:visible;"/>
	</clipPath>
	<path class="st0" d="M2,0c0,0-2,0-2,2v32.5c0,0,0,2,2,2h32.5c0,0,2,0,2-2V2c0,0,0-2-2-2H2z"/>
	<path class="st1" d="M18.7,36.6V20.9h-2.3v-4.7h2.3v-2.3c0-3.7,1.2-6.2,5.5-6.2c2.3,0,4.7,0.8,4.7,0.8v3.9h-2.3
		c-1.7,0-2.3,0.4-2.3,1.6v2.3h4.7l-0.8,4.7h-3.9v15.6"/>
</g>
</svg>
